<?xml version="1.0" encoding="UTF-8" standalone="no"?>
<!-- Generator: Adobe Illustrator 16.0.3, SVG Export Plug-In . SVG Version: 6.00 Build 0)  -->

<svg
   xmlns:dc="http://purl.org/dc/elements/1.1/"
   xmlns:cc="http://creativecommons.org/ns#"
   xmlns:rdf="http://www.w3.org/1999/02/22-rdf-syntax-ns#"
   xmlns:svg="http://www.w3.org/2000/svg"
   xmlns="http://www.w3.org/2000/svg"
   xmlns:sodipodi="http://sodipodi.sourceforge.net/DTD/sodipodi-0.dtd"
   xmlns:inkscape="http://www.inkscape.org/namespaces/inkscape"
   version="1.1"
   id="Layer_1"
   x="0px"
   y="0px"
   width="95.172px"
   height="110.814px"
   viewBox="0 0 95.172 110.814"
   enable-background="new 0 0 95.172 110.814"
   xml:space="preserve"
   inkscape:version="0.91 r13725"
   sodipodi:docname="C17_R.svg"
   inkscape:export-filename="C:\Users\Brenton\Downloads\Backup\MTG\Pictures\Symbols\Expansion Symbols\G - Reprint and Starter Sets\Commander 2017\C17_R.png"
   inkscape:export-xdpi="243.97932"
   inkscape:export-ydpi="243.97932"><metadata
     id="metadata40"><rdf:RDF><cc:Work
         rdf:about=""><dc:format>image/svg+xml</dc:format><dc:type
           rdf:resource="http://purl.org/dc/dcmitype/StillImage" /></cc:Work></rdf:RDF></metadata><defs
     id="defs38" /><sodipodi:namedview
     pagecolor="#ffffff"
     bordercolor="#666666"
     borderopacity="1"
     objecttolerance="10"
     gridtolerance="10"
     guidetolerance="10"
     inkscape:pageopacity="0"
     inkscape:pageshadow="2"
     inkscape:window-width="943"
     inkscape:window-height="480"
     id="namedview36"
     showgrid="false"
     inkscape:zoom="2.1296947"
     inkscape:cx="47.585999"
     inkscape:cy="55.407001"
     inkscape:window-x="208"
     inkscape:window-y="208"
     inkscape:window-maximized="0"
     inkscape:current-layer="Layer_1" /><path
     d="M95.172,21.592l-3.125-1.172c-3.456-1.302-9.248-4.197-13.02-7.532v-1.104V3.575V0h-3.575H59.051h-4.554l1.081,4.423  c0.167,0.683,0.248,1.324,0.248,1.96c0,4.544-3.697,8.241-8.241,8.241s-8.241-3.697-8.241-8.241c0-0.636,0.081-1.277,0.248-1.96  L40.672,0h-4.553H19.715h-3.576v3.575v8.209v1.106c-3.771,3.334-9.563,6.229-13.02,7.531L0,21.596l0.951,3.194  C8.58,50.36,7.947,61.643,7.939,61.753l-0.084,1.271l0.737,1.055c5.89,8.27,11.79,14.94,17.623,19.936  c-0.039,1.252-0.083,2.479-0.136,3.653l-0.069,1.573l1.113,1.114l17.932,17.93l2.528,2.528l2.527-2.528l17.932-17.931l1.113-1.113  l-0.069-1.573c-0.002-0.045-0.061-1.384-0.12-3.666c5.828-4.994,11.723-11.66,17.608-19.923l0.751-1.054l-0.099-1.29  c-0.006-0.093-0.64-11.376,6.99-36.946L95.172,21.592z"
     id="path3" /><linearGradient
     id="SVGID_1_"
     gradientUnits="userSpaceOnUse"
     x1="80.0977"
     y1="73.2456"
     x2="15.0708"
     y2="8.2187"><stop
       offset="0.05"
       style="stop-color:#8F743F"
       id="stop6" /><stop
       offset="0.0805"
       style="stop-color:#9F834C"
       id="stop8" /><stop
       offset="0.1373"
       style="stop-color:#B79D63"
       id="stop10" /><stop
       offset="0.2"
       style="stop-color:#CCB375"
       id="stop12" /><stop
       offset="0.2709"
       style="stop-color:#DCC484"
       id="stop14" /><stop
       offset="0.3569"
       style="stop-color:#E8D08D"
       id="stop16" /><stop
       offset="0.5"
       style="stop-color:#EBD491"
       id="stop18" /><stop
       offset="0.6431"
       style="stop-color:#E8D08D"
       id="stop20" /><stop
       offset="0.7291"
       style="stop-color:#DCC484"
       id="stop22" /><stop
       offset="0.8"
       style="stop-color:#CCB375"
       id="stop24" /><stop
       offset="0.8627"
       style="stop-color:#B79D63"
       id="stop26" /><stop
       offset="0.9195"
       style="stop-color:#9F834C"
       id="stop28" /><stop
       offset="0.95"
       style="stop-color:#8F743F"
       id="stop30" /></linearGradient><path
     fill="url(#SVGID_1_)"
     d="M18.32,15.724c6.613,9.625,8.39,40.775,8.008,63.587c-4.426-4.116-9.409-9.704-14.823-17.306  c0,0,0.864-11.449-7.129-38.237C4.376,23.768,12.688,20.648,18.32,15.724 M90.792,23.768c0,0-8.318-3.122-13.95-8.049  c-2.643,3.893-6.271,13.797-7.564,38.998c-0.482,9.378-0.493,18.353-0.405,24.563c4.418-4.112,9.39-9.692,14.791-17.275  C83.663,62.005,82.799,50.556,90.792,23.768 M46.371,104.545V18.119c-5.953-0.61-10.604-5.622-10.604-11.736  c0-0.969,0.131-1.906,0.351-2.808H19.714v8.209c12.746,12.746,9.938,76.042,9.938,76.042L46.371,104.545z M75.452,11.784V3.575  H59.051c0.221,0.902,0.351,1.839,0.351,2.808c0,6.113-4.648,11.124-10.601,11.735v86.423l16.714-16.715  C65.515,87.827,62.706,24.53,75.452,11.784"
     id="path32" /><rect
     fill="none"
     width="95.172"
     height="110.814"
     id="rect34" /></svg>